<?xml version="1.0" encoding="utf-8"?>
<!-- Generator: Adobe Illustrator 13.0.0, SVG Export Plug-In . SVG Version: 6.00 Build 14948)  -->
<!DOCTYPE svg PUBLIC "-//W3C//DTD SVG 1.1//EN" "http://www.w3.org/Graphics/SVG/1.1/DTD/svg11.dtd">
<svg version="1.1" id="Layer_1" xmlns="http://www.w3.org/2000/svg" xmlns:xlink="http://www.w3.org/1999/xlink" x="0px" y="0px"
	 width="394.56px" height="493.909px" viewBox="0 0 394.56 493.909" enable-background="new 0 0 394.56 493.909"
	 xml:space="preserve">
<g>
	<path d="M163.21,493.909H1.223v-89.246h36.676V86.189H0V0h143.038l71.52,210.89V84.356h-34.843V0h168.711v86.189h-34.843v318.474
		h34.843v89.246H215.169l-81.911-251.845v163.821h29.952V493.909z"/>
</g>
<g>
	<path fill="#808080" d="M376.055,249.462h-106.46V217.25h13.25l0.229-119.94h-13.936V63.956h106.917l18.505,16.449v56.886
		l-13.25,15.763l13.25,13.708v62.597L376.055,249.462z M356.179,172.015h-37.01v45.235h37.01V172.015z M355.722,97.996h-36.324
		v40.665h36.324V97.996z"/>
</g>
<g>
	<path fill="#808080" d="M355.571,369.039h36.096v47.976l-16.678,16.678h-79.273l-17.363-17.362V263.949l15.307-14.85h81.33
		l16.678,16.449v35.639H355.8v-18.962h-41.809V401.48h41.58V369.039z"/>
</g>
</svg>
